# xmcd
#
# Track frame offsets:
#	150
#	17885
#	36345
#	60100
#	88402
#	109995
#
# Disc length: 1769 seconds
#
# Revision: 3
# Processed by: cddbd v1.5.2PL0 Copyright (c) Steve Scherf et al.
# Submitted via: CDmax 1.9
#
DISCID=4a06e706
DTITLE=Little Axe - Storm Is Rising
DYEAR=1996
DGENRE=Dub
TTITLE0=Storm Is Rising (Radio Edit)
TTITLE1=Storm Is Rising (The Herbaliser "For A Few Dollars More" Remix)
TTITLE2=Storm Is Rising (Crimes For The Minds "Deep Southern" Remix)
TTITLE3=Storm Is Rising (Spacek Remix)
TTITLE4=Storm Is Rising (The Acid Blues)
TTITLE5=Storm Is Rising (Instrumental)
EXTD=YEAR: 1996
EXTT0=
EXTT1=
EXTT2=
EXTT3=
EXTT4=
EXTT5=
PLAYORDER=
